<?xml version="1.0" encoding="utf-8"?>
<!-- Generator: Adobe Illustrator 24.1.2, SVG Export Plug-In . SVG Version: 6.00 Build 0)  -->
<svg version="1.1" id="Layer_1" xmlns="http://www.w3.org/2000/svg" xmlns:xlink="http://www.w3.org/1999/xlink" x="0px" y="0px"
	 viewBox="0 0 300 300" enable-background="new 0 0 300 300" xml:space="preserve">
<defs>
	<filter id="Adobe_OpacityMaskFilter" filterUnits="userSpaceOnUse" x="0" y="5.19" width="300" height="294.81">
		<feFlood  style="flood-color:white;flood-opacity:1" result="back"/>
		<feBlend  in="SourceGraphic" in2="back" mode="normal"/>
	</filter>
</defs>
<mask maskUnits="userSpaceOnUse" x="0" y="5.19" width="300" height="294.81" id="SVGID_1_">
	<g filter="url(#Adobe_OpacityMaskFilter)">
		<defs>
			<filter id="Adobe_OpacityMaskFilter_1_" filterUnits="userSpaceOnUse" x="0" y="5.19" width="300" height="294.81">
				<feFlood  style="flood-color:white;flood-opacity:1" result="back"/>
				<feBlend  in="SourceGraphic" in2="back" mode="normal"/>
			</filter>
		</defs>
		<mask maskUnits="userSpaceOnUse" x="0" y="5.19" width="300" height="294.81" id="SVGID_1_">
			<g filter="url(#Adobe_OpacityMaskFilter_1_)">
			</g>
		</mask>
		
			<radialGradient id="SVGID_2_" cx="161.8532" cy="165.1792" r="161.25" gradientTransform="matrix(0.9302 0 0 0.9141 -0.5611 1.5987)" gradientUnits="userSpaceOnUse">
			<stop  offset="0" style="stop-color:#FFFFFF"/>
			<stop  offset="0.2482" style="stop-color:#B3B3B3"/>
			<stop  offset="0.5193" style="stop-color:#676767"/>
			<stop  offset="0.744" style="stop-color:#2F2F2F"/>
			<stop  offset="0.9103" style="stop-color:#0D0D0D"/>
			<stop  offset="1" style="stop-color:#000000"/>
		</radialGradient>
		<ellipse mask="url(#SVGID_1_)" fill="url(#SVGID_2_)" cx="150" cy="152.6" rx="150" ry="147.4"/>
	</g>
</mask>
<radialGradient id="SVGID_3_" cx="161.8532" cy="165.1792" r="161.25" gradientTransform="matrix(0.9302 0 0 0.9141 -0.5611 1.5987)" gradientUnits="userSpaceOnUse">
	<stop  offset="0" style="stop-color:#000056"/>
	<stop  offset="0.2482" style="stop-color:#4C4C88"/>
	<stop  offset="0.5193" style="stop-color:#9898BB"/>
	<stop  offset="0.744" style="stop-color:#D0D0E0"/>
	<stop  offset="0.9103" style="stop-color:#F2F2F6"/>
	<stop  offset="1" style="stop-color:#FFFFFF"/>
</radialGradient>
<ellipse opacity="0.8" fill="url(#SVGID_3_)" cx="150" cy="152.6" rx="150" ry="147.4"/>
<g>
	<path d="M231.61,114.85c0-60.56-49.1-109.66-109.66-109.66c-60.56,0-109.66,49.1-109.66,109.66c0,54.73,40.1,100.1,92.53,108.33
		v-76.63H76.97v-31.7h27.84V90.69c0-27.48,16.37-42.66,41.42-42.66c12,0,24.55,2.14,24.55,2.14v26.99h-13.83
		c-13.62,0-17.87,8.45-17.87,17.13v20.57h30.41l-4.86,31.7h-25.55v76.63C191.5,214.95,231.61,169.59,231.61,114.85z"/>
	<path fill="#FFFFFF" d="M164.63,146.55l4.86-31.7h-30.41V94.28c0-8.67,4.25-17.13,17.87-17.13h13.83V50.17
		c0,0-12.55-2.14-24.55-2.14c-25.05,0-41.42,15.18-41.42,42.66v24.16H76.97v31.7h27.84v76.63c5.58,0.88,11.3,1.33,17.13,1.33
		c5.83,0,11.55-0.46,17.13-1.33v-76.63H164.63z"/>
</g>
</svg>
