<?xml version="1.0" encoding="utf-8"?>
<!-- Generator: Adobe Illustrator 24.1.2, SVG Export Plug-In . SVG Version: 6.00 Build 0)  -->
<svg version="1.1" id="Layer_1" xmlns="http://www.w3.org/2000/svg" xmlns:xlink="http://www.w3.org/1999/xlink" x="0px" y="0px"
	 viewBox="0 0 300 300" enable-background="new 0 0 300 300" xml:space="preserve">
<defs>
	<filter id="Adobe_OpacityMaskFilter" filterUnits="userSpaceOnUse" x="0" y="7.97" width="300" height="292.03">
		<feFlood  style="flood-color:white;flood-opacity:1" result="back"/>
		<feBlend  in="SourceGraphic" in2="back" mode="normal"/>
	</filter>
</defs>
<mask maskUnits="userSpaceOnUse" x="0" y="7.97" width="300" height="292.03" id="SVGID_1_">
	<g filter="url(#Adobe_OpacityMaskFilter)">
		<defs>
			<filter id="Adobe_OpacityMaskFilter_1_" filterUnits="userSpaceOnUse" x="0" y="7.97" width="300" height="292.03">
				<feFlood  style="flood-color:white;flood-opacity:1" result="back"/>
				<feBlend  in="SourceGraphic" in2="back" mode="normal"/>
			</filter>
		</defs>
		<mask maskUnits="userSpaceOnUse" x="0" y="7.97" width="300" height="292.03" id="SVGID_1_">
			<g filter="url(#Adobe_OpacityMaskFilter_1_)">
			</g>
		</mask>
		
			<radialGradient id="SVGID_2_" cx="157.5" cy="165.471" r="157.5" gradientTransform="matrix(0.9524 0 0 0.9271 0 0.5813)" gradientUnits="userSpaceOnUse">
			<stop  offset="0" style="stop-color:#FFFFFF"/>
			<stop  offset="0.2482" style="stop-color:#B3B3B3"/>
			<stop  offset="0.5193" style="stop-color:#676767"/>
			<stop  offset="0.744" style="stop-color:#2F2F2F"/>
			<stop  offset="0.9103" style="stop-color:#0D0D0D"/>
			<stop  offset="1" style="stop-color:#000000"/>
		</radialGradient>
		<ellipse mask="url(#SVGID_1_)" fill="url(#SVGID_2_)" cx="150" cy="153.99" rx="150" ry="146.01"/>
	</g>
</mask>
<radialGradient id="SVGID_3_" cx="157.5" cy="165.471" r="157.5" gradientTransform="matrix(0.9524 0 0 0.9271 0 0.5813)" gradientUnits="userSpaceOnUse">
	<stop  offset="0" style="stop-color:#000056"/>
	<stop  offset="0.2482" style="stop-color:#4C4C88"/>
	<stop  offset="0.5193" style="stop-color:#9898BB"/>
	<stop  offset="0.744" style="stop-color:#D0D0E0"/>
	<stop  offset="0.9103" style="stop-color:#F2F2F6"/>
	<stop  offset="1" style="stop-color:#FFFFFF"/>
</radialGradient>
<ellipse opacity="0.8" fill="url(#SVGID_3_)" cx="150" cy="153.99" rx="150" ry="146.01"/>
<circle cx="112.12" cy="117.89" r="109.66"/>
<path fill="#FFFFFF" d="M172.71,80.32c-3.8,1.72-8,2.76-12.1,3.45c1.95-0.33,4.8-3.85,5.95-5.27c1.75-2.17,3.2-4.65,4.01-7.32
	c0.1-0.21,0.18-0.47-0.03-0.63c-0.26-0.1-0.43-0.05-0.64,0.05c-4.57,2.45-9.31,4.23-14.34,5.49c-0.42,0.1-0.73,0-0.99-0.26
	c-0.42-0.47-0.81-0.92-1.25-1.28c-2.12-1.8-4.39-3.21-6.95-4.26c-3.36-1.37-7.03-1.95-10.65-1.72c-3.52,0.23-6.98,1.22-10.11,2.86
	c-3.13,1.64-5.93,3.91-8.15,6.66c-2.3,2.84-4,6.2-4.87,9.75c-0.84,3.43-0.77,6.83-0.26,10.3c0.08,0.58,0.03,0.65-0.5,0.58
	c-19.7-2.93-36.02-9.98-49.28-25.08c-0.58-0.66-0.89-0.66-1.36,0.05c-5.8,8.69-2.99,22.66,4.26,29.52c0.97,0.92,1.96,1.83,3.03,2.66
	c-0.39,0.08-5.21-0.44-9.51-2.66c-0.58-0.36-0.86-0.16-0.92,0.5c-0.05,0.94,0.03,1.8,0.16,2.82c1.11,8.81,7.22,16.96,15.57,20.14
	c0.99,0.42,2.09,0.78,3.16,0.97c-1.9,0.42-3.87,0.72-9.33,0.29c-0.68-0.13-0.94,0.21-0.68,0.86c4.1,11.18,12.96,14.51,19.59,16.41
	c0.89,0.16,1.78,0.16,2.67,0.36c-0.05,0.08-0.11,0.08-0.16,0.16c-2.2,3.35-9.83,5.85-13.38,7.09c-6.46,2.26-13.5,3.27-20.32,2.6
	c-1.09-0.16-1.32-0.15-1.62,0c-0.3,0.19-0.04,0.45,0.31,0.73c1.39,0.91,2.8,1.73,4.23,2.51c4.34,2.3,8.86,4.13,13.59,5.43
	c24.41,6.74,51.92,1.79,70.25-16.43c14.4-14.3,19.44-34.03,19.44-53.78c0-0.77,0.91-1.2,1.46-1.61c3.75-2.81,6.77-6.18,9.56-9.94
	c0.63-0.84,0.63-1.6,0.63-1.9c0-0.05,0-0.1,0-0.1C173.2,80,173.2,80.1,172.71,80.32z"/>
</svg>
